o bed.json
v -3.021144003659639 0.8161489963531494 0.13920736671017586
v -3.021144003659639 0.5497099757194519 0.13920736671017586
v -3.021144003659639 0.8161489963531494 -0.5967086368746859
v -3.021144003659639 0.5497099757194519 0.13920736671017586
v -3.021144003659639 0.5497099757194519 -0.5967086368746859
v -3.021144003659639 0.8161489963531494 -0.5967086368746859
v -2.5671139667333693 0.8161489963531494 -0.5967086368746859
v -2.5671139667333693 0.5497099757194519 -0.5967086368746859
v -0.19067595997467957 0.8161489963531494 -0.3042836302466494
v -2.5671139667333693 0.5497099757194519 -0.5967086368746859
v -0.19067595997467957 0.5497099757194519 -0.5967086368746859
v -0.19067595997467957 0.8161489963531494 -0.3042836302466494
v -0.19067595997467957 0.8161489963531494 0.13920736671017586
v -0.19067595997467957 0.5497099757194519 0.13920736671017586
v -0.19067595997467957 0.8161489963531494 0.5826983636670011
v -0.19067595997467957 0.5497099757194519 0.13920736671017586
v -0.19067595997467957 0.5497099757194519 0.8751223868183988
v -0.19067595997467957 0.8161489963531494 0.5826983636670011
v -3.021144003659639 0.5497099757194519 0.8751223868183988
v -3.021144003659639 0.8161489963531494 0.8751223868183988
v -2.5671139667333693 0.5497099757194519 0.8751223868183988
v -3.021144003659639 0.8161489963531494 0.8751223868183988
v -2.5671139667333693 0.8161489963531494 0.8751223868183988
v -2.5671139667333693 0.5497099757194519 0.8751223868183988
v -2.5671139667333693 0.8161489963531494 0.13920736671017586
v -0.19067595997467957 0.8161489963531494 0.13920736671017586
v -2.5671139667333693 0.8161489963531494 0.8751223868183988
v -0.19067595997467957 0.8161489963531494 0.13920736671017586
v -0.19067595997467957 0.8161489963531494 0.5826983636670011
v -2.5671139667333693 0.8161489963531494 0.8751223868183988
v -2.5671139667333693 0.5497099757194519 0.13920736671017586
v -3.021144003659639 0.5497099757194519 0.13920736671017586
v -2.5671139667333693 0.5497099757194519 0.8751223868183988
v -3.021144003659639 0.5497099757194519 0.13920736671017586
v -3.021144003659639 0.5497099757194519 0.8751223868183988
v -2.5671139667333693 0.5497099757194519 0.8751223868183988
v -0.19067595997467957 0.5497099757194519 0.13920736671017586
v -2.5671139667333693 0.5497099757194519 0.13920736671017586
v -0.19067595997467957 0.5497099757194519 0.8751223868183988
v -2.5671139667333693 0.5497099757194519 0.13920736671017586
v -2.5671139667333693 0.5497099757194519 0.8751223868183988
v -0.19067595997467957 0.5497099757194519 0.8751223868183988
v -2.5671139667333693 0.8161489963531494 0.8751223868183988
v -3.021144003659639 0.8161489963531494 0.8751223868183988
v -2.6685639331640334 0.8934119939804077 0.710685390835275
v -3.021144003659639 0.8161489963531494 0.8751223868183988
v -2.919694037228975 0.8934119939804077 0.710685390835275
v -2.6685639331640334 0.8934119939804077 0.710685390835275
v -0.19067595997467957 0.8161489963531494 0.5826983636670011
v -0.19067595997467957 0.5497099757194519 0.8751223868183988
v -2.5671139667333693 0.8161489963531494 0.8751223868183988
v -0.19067595997467957 0.5497099757194519 0.8751223868183988
v -2.5671139667333693 0.5497099757194519 0.8751223868183988
v -2.5671139667333693 0.8161489963531494 0.8751223868183988
v -3.021144003659639 0.8161489963531494 -0.5967086368746859
v -3.021144003659639 0.5497099757194519 -0.5967086368746859
v -2.5671139667333693 0.8161489963531494 -0.5967086368746859
v -3.021144003659639 0.5497099757194519 -0.5967086368746859
v -2.5671139667333693 0.5497099757194519 -0.5967086368746859
v -2.5671139667333693 0.8161489963531494 -0.5967086368746859
v -2.5671139667333693 0.8161489963531494 -0.5967086368746859
v -2.5671139667333693 0.8161489963531494 0.13920736671017586
v -2.655343861371431 0.8836449980735779 -0.4566056245513064
v -2.5671139667333693 0.8161489963531494 0.13920736671017586
v -2.655343861371431 0.8836449980735779 -0.01423913068545879
v -2.655343861371431 0.8836449980735779 -0.4566056245513064
v -0.19067595997467957 0.5497099757194519 -0.5967086368746859
v -2.5671139667333693 0.5497099757194519 -0.5967086368746859
v -0.19067595997467957 0.5497099757194519 0.13920736671017586
v -2.5671139667333693 0.5497099757194519 -0.5967086368746859
v -2.5671139667333693 0.5497099757194519 0.13920736671017586
v -0.19067595997467957 0.5497099757194519 0.13920736671017586
v -2.5671139667333693 0.5497099757194519 -0.5967086368746859
v -3.021144003659639 0.5497099757194519 -0.5967086368746859
v -2.5671139667333693 0.5497099757194519 0.13920736671017586
v -3.021144003659639 0.5497099757194519 -0.5967086368746859
v -3.021144003659639 0.5497099757194519 0.13920736671017586
v -2.5671139667333693 0.5497099757194519 0.13920736671017586
v -2.5671139667333693 0.8161489963531494 -0.5967086368746859
v -0.19067595997467957 0.8161489963531494 -0.3042836302466494
v -2.5671139667333693 0.8161489963531494 0.13920736671017586
v -0.19067595997467957 0.8161489963531494 -0.3042836302466494
v -0.19067595997467957 0.8161489963531494 0.13920736671017586
v -2.5671139667333693 0.8161489963531494 0.13920736671017586
v -0.19067595997467957 0.8161489963531494 -0.3042836302466494
v -0.19067595997467957 0.5497099757194519 -0.5967086368746859
v -0.19067595997467957 0.8161489963531494 0.13920736671017586
v -0.19067595997467957 0.5497099757194519 -0.5967086368746859
v -0.19067595997467957 0.5497099757194519 0.13920736671017586
v -0.19067595997467957 0.8161489963531494 0.13920736671017586
v -3.021144003659639 0.8161489963531494 0.8751223868183988
v -3.021144003659639 0.5497099757194519 0.8751223868183988
v -3.021144003659639 0.8161489963531494 0.13920736671017586
v -3.021144003659639 0.5497099757194519 0.8751223868183988
v -3.021144003659639 0.5497099757194519 0.13920736671017586
v -3.021144003659639 0.8161489963531494 0.13920736671017586
v -2.9282639930547805 0.8836449980735779 -0.4566056245513064
v -2.655343861371431 0.8836449980735779 -0.4566056245513064
v -2.9282639930547805 0.8836449980735779 -0.01423913068545879
v -2.655343861371431 0.8836449980735779 -0.4566056245513064
v -2.655343861371431 0.8836449980735779 -0.01423913068545879
v -2.9282639930547805 0.8836449980735779 -0.01423913068545879
v -3.021144003659639 0.8161489963531494 -0.5967086368746859
v -2.5671139667333693 0.8161489963531494 -0.5967086368746859
v -2.9282639930547805 0.8836449980735779 -0.4566056245513064
v -2.5671139667333693 0.8161489963531494 -0.5967086368746859
v -2.655343861371431 0.8836449980735779 -0.4566056245513064
v -2.9282639930547805 0.8836449980735779 -0.4566056245513064
v -2.5671139667333693 0.8161489963531494 0.13920736671017586
v -3.021144003659639 0.8161489963531494 0.13920736671017586
v -2.655343861371431 0.8836449980735779 -0.01423913068545879
v -3.021144003659639 0.8161489963531494 0.13920736671017586
v -2.9282639930547805 0.8836449980735779 -0.01423913068545879
v -2.655343861371431 0.8836449980735779 -0.01423913068545879
v -3.021144003659639 0.8161489963531494 0.13920736671017586
v -3.021144003659639 0.8161489963531494 -0.5967086368746859
v -2.9282639930547805 0.8836449980735779 -0.01423913068545879
v -3.021144003659639 0.8161489963531494 -0.5967086368746859
v -2.9282639930547805 0.8836449980735779 -0.4566056245513064
v -2.9282639930547805 0.8836449980735779 -0.01423913068545879
v -2.919694037228975 0.8934119939804077 0.30364437759446083
v -2.6685639331640334 0.8934119939804077 0.30364437759446083
v -2.919694037228975 0.8934119939804077 0.710685390835275
v -2.6685639331640334 0.8934119939804077 0.30364437759446083
v -2.6685639331640334 0.8934119939804077 0.710685390835275
v -2.919694037228975 0.8934119939804077 0.710685390835275
v -2.5671139667333693 0.8161489963531494 0.13920736671017586
v -2.5671139667333693 0.8161489963531494 0.8751223868183988
v -2.6685639331640334 0.8934119939804077 0.30364437759446083
v -2.5671139667333693 0.8161489963531494 0.8751223868183988
v -2.6685639331640334 0.8934119939804077 0.710685390835275
v -2.6685639331640334 0.8934119939804077 0.30364437759446083
v -3.021144003659639 0.8161489963531494 0.13920736671017586
v -2.5671139667333693 0.8161489963531494 0.13920736671017586
v -2.919694037228975 0.8934119939804077 0.30364437759446083
v -2.5671139667333693 0.8161489963531494 0.13920736671017586
v -2.6685639331640334 0.8934119939804077 0.30364437759446083
v -2.919694037228975 0.8934119939804077 0.30364437759446083
v -3.021144003659639 0.8161489963531494 0.8751223868183988
v -3.021144003659639 0.8161489963531494 0.13920736671017586
v -2.919694037228975 0.8934119939804077 0.710685390835275
v -3.021144003659639 0.8161489963531494 0.13920736671017586
v -2.919694037228975 0.8934119939804077 0.30364437759446083
v -2.919694037228975 0.8934119939804077 0.710685390835275
vn 1 0 0
vn 1 0 0
vn 1 0 0
vn 1 0 0
vn 1 0 0
vn 1 0 0
vn -0.05385969951748848 -0.4803889989852905 0.8754000067710876
vn -0.05385969951748848 -0.4803889989852905 0.8754000067710876
vn -0.05385969951748848 -0.4803889989852905 0.8754000067710876
vn -0.05385969951748848 -0.4803889989852905 0.8754000067710876
vn -0.05385969951748848 -0.4803889989852905 0.8754000067710876
vn -0.05385969951748848 -0.4803889989852905 0.8754000067710876
vn -1 0 0
vn -1 0 0
vn -1 0 0
vn -1 0 0
vn -1 0 0
vn -1 0 0
vn 0 0 -1
vn 0 0 -1
vn 0 0 -1
vn 0 0 -1
vn 0 0 -1
vn 0 0 -1
vn 0 -1 0
vn 0 -1 0
vn 0 -1 0
vn 0 -1 0
vn 0 -1 0
vn 0 -1 0
vn 0 1 -8.099389958715619e-8
vn 0 1 -8.099389958715619e-8
vn 0 1 -8.099389958715619e-8
vn 0 1 -8.099389958715619e-8
vn 0 1 -8.099389958715619e-8
vn 0 1 -8.099389958715619e-8
vn 0 1 -8.099389958715619e-8
vn 0 1 -8.099389958715619e-8
vn 0 1 -8.099389958715619e-8
vn 0 1 -8.099389958715619e-8
vn 0 1 -8.099389958715619e-8
vn 0 1 -8.099389958715619e-8
vn 0 -0.9050719738006592 -0.425258994102478
vn 0 -0.9050719738006592 -0.425258994102478
vn 0 -0.9050719738006592 -0.425258994102478
vn 0 -0.9050719738006592 -0.425258994102478
vn 0 -0.9050719738006592 -0.425258994102478
vn 0 -0.9050719738006592 -0.425258994102478
vn -0.05385980010032654 -0.4803889989852905 -0.8754000067710876
vn -0.05385980010032654 -0.4803889989852905 -0.8754000067710876
vn -0.05385980010032654 -0.4803889989852905 -0.8754000067710876
vn -0.05385980010032654 -0.4803889989852905 -0.8754000067710876
vn -0.05385980010032654 -0.4803889989852905 -0.8754000067710876
vn -0.05385980010032654 -0.4803889989852905 -0.8754000067710876
vn 0 0 1
vn 0 0 1
vn 0 0 1
vn 0 0 1
vn 0 0 1
vn 0 0 1
vn -0.6075860261917114 -0.7942540049552917 3.913280011147435e-8
vn -0.6075860261917114 -0.7942540049552917 3.913280011147435e-8
vn -0.6075860261917114 -0.7942540049552917 3.913280011147435e-8
vn -0.6075860261917114 -0.7942540049552917 3.913280011147435e-8
vn -0.6075860261917114 -0.7942540049552917 3.913280011147435e-8
vn -0.6075860261917114 -0.7942540049552917 3.913280011147435e-8
vn 0 1 0
vn 0 1 0
vn 0 1 0
vn 0 1 0
vn 0 1 0
vn 0 1 0
vn 0 1 0
vn 0 1 0
vn 0 1 0
vn 0 1 0
vn 0 1 0
vn 0 1 0
vn 9.431380121327493e-9 -1 5.0537799722860655e-8
vn 9.431380121327493e-9 -1 5.0537799722860655e-8
vn 9.431380121327493e-9 -1 5.0537799722860655e-8
vn 9.431380121327493e-9 -1 5.0537799722860655e-8
vn 9.431380121327493e-9 -1 5.0537799722860655e-8
vn 9.431380121327493e-9 -1 5.0537799722860655e-8
vn -1 0 0
vn -1 0 0
vn -1 0 0
vn -1 0 0
vn -1 0 0
vn -1 0 0
vn 1 0 0
vn 1 0 0
vn 1 0 0
vn 1 0 0
vn 1 0 0
vn 1 0 0
vn 0 -1 0
vn 0 -1 0
vn 0 -1 0
vn 0 -1 0
vn 0 -1 0
vn 0 -1 0
vn 0 -0.9009019732475281 0.43402299284935
vn 0 -0.9009019732475281 0.43402299284935
vn 0 -0.9009019732475281 0.43402299284935
vn 0 -0.9009019732475281 0.43402299284935
vn 0 -0.9009019732475281 0.43402299284935
vn 0 -0.9009019732475281 0.43402299284935
vn 0 -0.9153590202331543 -0.4026390016078949
vn 0 -0.9153590202331543 -0.4026390016078949
vn 0 -0.9153590202331543 -0.4026390016078949
vn 0 -0.9153590202331543 -0.4026390016078949
vn 0 -0.9153590202331543 -0.4026390016078949
vn 0 -0.9153590202331543 -0.4026390016078949
vn 0.587897002696991 -0.8089359998703003 4.1306901010784713e-8
vn 0.587897002696991 -0.8089359998703003 4.1306901010784713e-8
vn 0.587897002696991 -0.8089359998703003 4.1306901010784713e-8
vn 0.587897002696991 -0.8089359998703003 4.1306901010784713e-8
vn 0.587897002696991 -0.8089359998703003 4.1306901010784713e-8
vn 0.587897002696991 -0.8089359998703003 4.1306901010784713e-8
vn 0 -1 1.4643400447766908e-7
vn 0 -1 1.4643400447766908e-7
vn 0 -1 1.4643400447766908e-7
vn 0 -1 1.4643400447766908e-7
vn 0 -1 1.4643400447766908e-7
vn 0 -1 1.4643400447766908e-7
vn -0.6058800220489502 -0.7955560088157654 4.47284982385554e-8
vn -0.6058800220489502 -0.7955560088157654 4.47284982385554e-8
vn -0.6058800220489502 -0.7955560088157654 4.47284982385554e-8
vn -0.6058800220489502 -0.7955560088157654 4.47284982385554e-8
vn -0.6058800220489502 -0.7955560088157654 4.47284982385554e-8
vn -0.6058800220489502 -0.7955560088157654 4.47284982385554e-8
vn 0 -0.9050719738006592 0.42525801062583923
vn 0 -0.9050719738006592 0.42525801062583923
vn 0 -0.9050719738006592 0.42525801062583923
vn 0 -0.9050719738006592 0.42525801062583923
vn 0 -0.9050719738006592 0.42525801062583923
vn 0 -0.9050719738006592 0.42525801062583923
vn 0.605879008769989 -0.7955570220947266 3.8338701102702544e-8
vn 0.605879008769989 -0.7955570220947266 3.8338701102702544e-8
vn 0.605879008769989 -0.7955570220947266 3.8338701102702544e-8
vn 0.605879008769989 -0.7955570220947266 3.8338701102702544e-8
vn 0.605879008769989 -0.7955570220947266 3.8338701102702544e-8
vn 0.605879008769989 -0.7955570220947266 3.8338701102702544e-8
f 1//1 2//2 3//3
f 4//4 5//5 6//6
f 7//7 8//8 9//9
f 10//10 11//11 12//12
f 13//13 14//14 15//15
f 16//16 17//17 18//18
f 19//19 20//20 21//21
f 22//22 23//23 24//24
f 25//25 26//26 27//27
f 28//28 29//29 30//30
f 31//31 32//32 33//33
f 34//34 35//35 36//36
f 37//37 38//38 39//39
f 40//40 41//41 42//42
f 43//43 44//44 45//45
f 46//46 47//47 48//48
f 49//49 50//50 51//51
f 52//52 53//53 54//54
f 55//55 56//56 57//57
f 58//58 59//59 60//60
f 61//61 62//62 63//63
f 64//64 65//65 66//66
f 67//67 68//68 69//69
f 70//70 71//71 72//72
f 73//73 74//74 75//75
f 76//76 77//77 78//78
f 79//79 80//80 81//81
f 82//82 83//83 84//84
f 85//85 86//86 87//87
f 88//88 89//89 90//90
f 91//91 92//92 93//93
f 94//94 95//95 96//96
f 97//97 98//98 99//99
f 100//100 101//101 102//102
f 103//103 104//104 105//105
f 106//106 107//107 108//108
f 109//109 110//110 111//111
f 112//112 113//113 114//114
f 115//115 116//116 117//117
f 118//118 119//119 120//120
f 121//121 122//122 123//123
f 124//124 125//125 126//126
f 127//127 128//128 129//129
f 130//130 131//131 132//132
f 133//133 134//134 135//135
f 136//136 137//137 138//138
f 139//139 140//140 141//141
f 142//142 143//143 144//144
